<svg version="1.2" baseProfile="tiny-ps" xmlns="http://www.w3.org/2000/svg" viewBox="0 0 1920 1080" width="1920" height="1080">
	<title>New Project</title>
	<style>
		tspan { white-space:pre }
	</style>
	<path id="logo" fill="#1cbdf5" aria-label="hng"  d="M487.72 267.13L487.72 462.44L722.48 462.05L722.48 599.16L487.72 599.16L487.72 814L351 814L351 267.13L487.72 267.13ZM1134.59 442.91L1134.59 814L997.88 814L997.88 442.91Q997.88 426.89 986.16 415.56Q974.83 403.84 958.81 403.84L880.69 403.84L880.69 814L743.97 814L743.97 267.13L958.81 267.52L958.81 267.13Q1031.47 267.13 1083.03 318.69Q1134.59 370.25 1134.59 442.91ZM1568.19 462.44L1568.19 599.16L1411.94 599.16L1411.94 462.44L1568.19 462.44ZM1502.56 657.75L1568.19 657.75L1568.19 778.06Q1507.25 814 1431.47 814Q1318.19 814 1238.11 733.92Q1158.03 653.84 1158.03 540.56Q1158.03 427.28 1238.11 347.2Q1318.19 267.13 1431.47 267.13L1568.19 267.13L1568.19 403.84L1431.47 403.84Q1374.83 403.84 1334.59 444.08Q1294.75 483.92 1294.75 540.56Q1294.75 597.2 1334.59 637.44Q1374.83 677.28 1431.47 677.28Q1470.92 677.28 1502.56 657.75Z" />
</svg>