<?xml version="1.0" standalone="no"?>
<!DOCTYPE svg PUBLIC "-//W3C//DTD SVG 20010904//EN"
 "http://www.w3.org/TR/2001/REC-SVG-20010904/DTD/svg10.dtd">
<svg version="1.0" xmlns="http://www.w3.org/2000/svg"
 width="1920.000000pt" height="1920.000000pt" viewBox="0 0 1920.000000 1920.000000"
 preserveAspectRatio="xMidYMid meet">
<metadata>
Created by potrace 1.14, written by Peter Selinger 2001-2017
</metadata>
<g transform="translate(0.000000,1920.000000) scale(0.100000,-0.100000)"
fill="#000000" stroke="none">
<path d="M3510 9595 l0 -2735 685 0 685 0 0 1075 0 1075 1175 0 1175 0 0 685
0 685 -1175 0 -1175 0 0 975 0 975 -685 0 -685 0 0 -2735z"/>
<path d="M7440 9595 l0 -2735 685 0 685 0 0 2050 0 2050 418 0 c382 0 424 -2
475 -19 139 -45 244 -167 267 -308 6 -35 10 -790 10 -1915 l0 -1858 685 0 686
0 -4 1953 c-4 2086 -2 1993 -51 2187 -80 314 -229 572 -466 810 -308 307 -666
475 -1086 510 -68 5 -584 10 -1211 10 l-1093 0 0 -2735z"/>
<path d="M14125 12323 c-594 -49 -1058 -227 -1498 -575 -121 -96 -365 -338
-461 -458 -388 -485 -586 -1057 -586 -1695 0 -688 229 -1299 674 -1797 467
-524 1015 -823 1676 -915 178 -25 598 -25 765 0 326 49 572 124 839 258 67 33
127 65 134 71 9 8 12 142 12 609 l0 599 -327 0 -326 0 -101 -50 c-213 -104
-349 -134 -611 -135 -210 0 -286 11 -450 67 -421 142 -767 517 -874 946 -55
221 -54 490 3 707 110 422 466 800 881 935 208 67 250 70 1075 70 l730 0 0
685 0 685 -757 -2 c-417 -1 -776 -3 -798 -5z"/>
<path d="M14120 9695 l0 -685 780 0 780 0 0 685 0 685 -780 0 -780 0 0 -685z"/>
</g>
</svg>
